<svg width="17" height="17" viewBox="0 0 17 17" fill="none" xmlns="http://www.w3.org/2000/svg">
<g clip-path="url(#clip0_71_2)">
<path fill-rule="evenodd" clip-rule="evenodd" d="M2.76111 0.947937C1.9196 0.947937 1.2373 1.63023 1.2373 2.47175V14.6622C1.2373 15.5038 1.9196 16.186 2.76111 16.186H14.9516C15.7931 16.186 16.4754 15.5038 16.4754 14.6622V2.47175C16.4754 1.63023 15.7931 0.947937 14.9516 0.947937H2.76111ZM13.1412 6.51081V13.3921H14.9618V6.51081H13.1412ZM12.1311 13.3933H10.0448L9.21538 11.2355H5.41829L4.63425 13.3933H2.59966L6.29944 3.89399H8.32769L12.1311 13.3933ZM8.59984 9.63503L7.29088 6.11014L6.00795 9.63503H8.59984ZM14.052 5.86311C14.638 5.86311 15.1131 5.38804 15.1131 4.8021C15.1131 4.21616 14.638 3.74109 14.052 3.74109C13.4661 3.74109 12.991 4.21616 12.991 4.8021C12.991 5.38804 13.4661 5.86311 14.052 5.86311Z" fill="white"/>
</g>
<defs>
<clipPath id="clip0_71_2">
<rect width="16" height="16" fill="white" transform="translate(0.5 0.5)"/>
</clipPath>
</defs>
</svg>
